HIERARCHY
ROOT Hips
{
    OFFSET 0.000000 0.000000 0.000000
    CHANNELS 6 Xposition Yposition Zposition Zrotation Xrotation Yrotation
    JOINT Spine
    {
        OFFSET -0.000000 14.517291 0.000000
        CHANNELS 3 Zrotation Xrotation Yrotation
        JOINT Spine1
        {
            OFFSET -0.000000 37.558300 0.000000
            CHANNELS 3 Zrotation Xrotation Yrotation
            JOINT Neck
            {
                OFFSET -0.000000 37.404057 3.400369
                CHANNELS 3 Zrotation Xrotation Yrotation
                JOINT Head
                {
                    OFFSET -0.000000 24.785618 -3.540803
                    CHANNELS 3 Zrotation Xrotation Yrotation
                    End Site
                    {
                        OFFSET -0.000000 35.408028 0.000000
                    }
                }
            }
            JOINT LeftShoulder
            {
                OFFSET 6.992933 33.973492 -0.192664
                CHANNELS 3 Zrotation Xrotation Yrotation
                JOINT LeftArm
                {
                    OFFSET 21.527611 0.000000 0.000000
                    CHANNELS 3 Zrotation Xrotation Yrotation
                    JOINT LeftForeArm
                    {
                        OFFSET 56.353916 0.000000 0.000000
                        CHANNELS 3 Zrotation Xrotation Yrotation
                        JOINT LeftHand
                        {
                            OFFSET 47.774071 0.000000 0.000000
                            CHANNELS 3 Zrotation Xrotation Yrotation
                            End Site
                            {
                                OFFSET 26.556021 0.000000 0.000000
                            }
                        }
                    }
                }
            }
            JOINT RightShoulder
            {
                OFFSET -7.065357 33.973492 -0.192664
                CHANNELS 3 Zrotation Xrotation Yrotation
                JOINT RightArm
                {
                    OFFSET -21.527611 0.000000 0.000000
                    CHANNELS 3 Zrotation Xrotation Yrotation
                    JOINT RightForeArm
                    {
                        OFFSET -56.353916 0.000000 0.000000
                        CHANNELS 3 Zrotation Xrotation Yrotation
                        JOINT RightHand
                        {
                            OFFSET -47.774071 0.000000 0.000000
                            CHANNELS 3 Zrotation Xrotation Yrotation
                            End Site
                            {
                                OFFSET -26.556021 0.000000 0.000000
                            }
                        }
                    }
                }
            }
        }
    }
    JOINT LeftUpLeg
    {
        OFFSET 17.704014 0.000000 0.000000
        CHANNELS 3 Zrotation Xrotation Yrotation
        JOINT LeftLeg
        {
            OFFSET -0.000000 -81.181816 0.000000
            CHANNELS 3 Zrotation Xrotation Yrotation
            JOINT LeftFoot
            {
                OFFSET -0.000000 -62.821102 0.000000
                CHANNELS 3 Zrotation Xrotation Yrotation
                JOINT LeftToeBase
                {
                    OFFSET -0.000000 -11.507608 26.556021
                    CHANNELS 3 Zrotation Xrotation Yrotation
                    End Site
                    {
                        OFFSET -0.000000 0.000000 7.081605
                    }
                }
            }
        }
    }
    JOINT RightUpLeg
    {
        OFFSET -17.704014 0.000000 0.000000
        CHANNELS 3 Zrotation Xrotation Yrotation
        JOINT RightLeg
        {
            OFFSET -0.000000 -81.181816 0.000000
            CHANNELS 3 Zrotation Xrotation Yrotation
            JOINT RightFoot
            {
                OFFSET -0.000000 -62.821102 0.000000
                CHANNELS 3 Zrotation Xrotation Yrotation
                JOINT RightToeBase
                {
                    OFFSET -0.000000 -11.507608 26.556021
                    CHANNELS 3 Zrotation Xrotation Yrotation
                    End Site
                    {
                        OFFSET -0.000000 0.000000 7.081605
                    }
                }
            }
        }
    }
}
MOTION
Frames:    12
Frame Time:    0.008333
35.628174    154.991409    -62.658627    -3.038864    4.316131    16.362127    1.962074    0.415464    -1.998641    -12.723184    -3.226655    -1.021041    16.471529    1.365684    5.765239    1.064402    -0.322367    3.891054    14.070292    -3.488828    -13.662185    -21.608402    -26.798975    -31.131926    -17.065786    -33.469841    -99.385818    -29.369579    -42.091892    -35.223553    -15.417068    -1.391053    -5.627724    18.065443    18.316967    12.298172    11.566858    13.735755    -0.099995    9.677197    14.879173    13.755096    31.896242    -4.828801    -9.187632    -8.023458    25.710403    -18.669573    -19.189268    -10.765766    45.992794    0.000000    0.000000    0.000000    -9.020564    -32.321556    1.097912    17.761396    39.944695    -11.822598    -5.086854    -8.576251    -12.409201    0.000000    0.000000    0.000000    
34.741375    155.283768    -62.356842    -3.046922    4.447774    16.596170    1.866173    0.388642    -2.049693    -12.683215    -3.311385    -1.046559    16.343052    1.426758    5.662727    1.232139    -0.404302    3.836505    13.974580    -3.471111    -13.794270    -21.658266    -26.642418    -31.222549    -16.980656    -33.567123    -99.384483    -29.360254    -42.104801    -35.209496    -15.420398    -1.384185    -5.618173    18.121572    18.174070    12.153358    11.655919    13.814575    -0.131354    9.527057    14.942407    13.746050    31.736742    -5.087516    -9.157302    -8.081024    25.457777    -18.231131    -18.620323    -9.935166    46.833565    0.000000    0.000000    0.000000    -8.743740    -32.221294    1.086270    17.685596    39.601223    -11.838388    -5.273297    -8.426653    -12.435323    0.000000    0.000000    0.000000    
33.901611    155.583359    -62.050976    -3.024084    4.560887    16.821856    1.772466    0.356039    -2.093464    -12.652163    -3.326210    -1.062028    16.171133    1.440865    5.570863    1.445985    -0.492748    3.799097    13.877311    -3.449217    -13.848147    -21.682938    -26.331345    -31.405478    -16.858709    -33.896725    -99.409836    -29.561245    -42.216389    -35.328754    -15.488082    -1.387153    -5.715327    18.216106    18.266611    12.111417    11.602395    13.806299    -0.104754    9.465168    14.920367    13.698452    31.491179    -5.291872    -9.028770    -8.070428    25.194012    -17.781065    -18.060156    -9.185972    47.668274    0.000000    0.000000    0.000000    -8.494290    -32.092674    1.060459    17.566490    39.270718    -11.867295    -5.385683    -8.292674    -12.426114    0.000000    0.000000    0.000000    
33.094616    155.877945    -61.763794    -2.978651    4.675862    17.029203    1.681067    0.321514    -2.130454    -12.693607    -3.298743    -1.072756    16.211529    1.349952    5.543348    1.457288    -0.477935    3.753135    13.898896    -3.454727    -13.871268    -21.826614    -26.237677    -31.608940    -16.818300    -33.889145    -99.425613    -29.468645    -42.216286    -35.254589    -15.438604    -1.410507    -5.803506    18.208807    18.171339    12.077734    11.693818    13.858156    -0.115628    9.396361    14.958940    13.622043    31.177616    -5.454491    -8.790706    -8.042441    24.905443    -17.324024    -17.273232    -8.392949    48.470066    0.000000    0.000000    0.000000    -8.301956    -31.958363    0.985804    17.478582    38.922760    -11.841433    -5.536893    -8.127008    -12.450085    0.000000    0.000000    0.000000    
32.343464    156.169220    -61.465549    -2.884798    4.753584    17.198627    1.591707    0.278125    -2.148518    -12.771157    -3.241468    -1.074834    16.176096    1.378920    5.504521    1.574209    -0.559738    3.740119    13.922817    -3.400233    -13.899732    -21.906139    -26.008675    -31.821352    -16.702148    -34.122147    -99.418312    -29.594324    -42.259037    -35.368473    -15.386068    -1.440818    -5.810040    18.243916    18.358919    11.975366    11.603481    13.816790    -0.072927    9.450014    14.918312    13.604557    30.783836    -5.527616    -8.490273    -7.984991    24.616354    -16.846954    -16.206619    -7.456803    49.042477    0.000000    0.000000    0.000000    -8.142539    -31.769588    0.879603    17.331804    38.594299    -11.742562    -5.685642    -8.007586    -12.442966    0.000000    0.000000    0.000000    
31.608152    156.464081    -61.188080    -2.795070    4.798013    17.355165    1.567104    0.164121    -2.191024    -12.947441    -3.015873    -1.068772    16.291206    1.387862    5.503103    1.523181    -0.646557    3.717525    13.997514    -3.356277    -13.935157    -21.949579    -25.943012    -31.974205    -16.699274    -34.236820    -99.429359    -29.640308    -42.343155    -35.401100    -15.272072    -1.476810    -5.726618    18.289881    18.318529    11.861321    11.608509    13.841902    -0.060651    9.408921    14.933024    13.551208    30.363394    -5.560452    -8.098994    -7.888322    24.344416    -16.513988    -14.839978    -6.434864    49.472744    0.000000    0.000000    0.000000    -7.970520    -31.560896    0.830137    17.229298    38.257206    -11.717941    -5.821406    -7.857313    -12.447617    0.000000    0.000000    0.000000    
30.896059    156.738632    -60.942322    -2.707530    4.849644    17.474857    1.494750    0.192216    -2.187351    -13.011683    -3.006512    -1.068004    16.352112    1.408111    5.477682    1.502142    -0.681184    3.682897    13.998910    -3.375378    -13.989375    -21.945423    -25.642902    -32.063648    -16.570110    -34.462833    -99.452156    -29.683765    -42.419964    -35.409939    -15.215864    -1.519669    -5.709251    18.288580    18.268808    11.799213    11.722997    13.910373    -0.115321    9.402190    15.005997    13.552949    29.913628    -5.585077    -7.566003    -7.816758    24.158083    -16.248598    -13.340643    -5.515516    49.716419    0.000000    0.000000    0.000000    -7.780680    -31.382593    0.792287    17.073053    37.949574    -11.549835    -5.916259    -7.713423    -12.521403    0.000000    0.000000    0.000000    
30.229309    157.000320    -60.703678    -2.627238    4.896289    17.591394    1.451768    0.183299    -2.176092    -13.031680    -2.915180    -1.054444    16.232084    1.289700    5.430988    1.600251    -0.614554    3.647356    13.972729    -3.338283    -14.000868    -22.001717    -25.589272    -32.241615    -16.563913    -34.484406    -99.436836    -29.718336    -42.417179    -35.425274    -15.242684    -1.444420    -5.809638    18.302986    18.404699    11.870408    11.605065    13.808320    -0.034434    9.767293    14.931664    13.470283    29.453520    -5.588396    -6.986941    -7.755428    24.087107    -16.158895    -12.303687    -5.019854    49.452579    0.000000    0.000000    0.000000    -7.599890    -31.193514    0.803124    16.944874    37.621822    -11.410576    -6.006914    -7.591016    -12.612112    0.000000    0.000000    0.000000    
29.569031    157.250412    -60.491253    -2.560164    4.943680    17.689692    1.401636    0.199550    -2.174524    -13.027369    -2.881826    -1.049886    16.140030    1.301895    5.383859    1.659585    -0.670531    3.622537    13.949153    -3.308039    -13.986564    -22.091824    -25.535606    -32.405323    -16.581589    -34.448921    -99.426537    -29.723484    -42.390671    -35.457825    -15.248463    -1.478811    -5.817559    18.273008    18.231285    11.892631    11.783355    13.913125    -0.106544    9.759996    15.035230    13.384877    29.015898    -5.603610    -6.353800    -7.727244    24.050083    -16.174385    -11.587117    -5.203281    48.522015    0.000000    0.000000    0.000000    -7.393025    -31.028969    0.797757    16.765572    37.294449    -11.360788    -6.042809    -7.449784    -12.563622    0.000000    0.000000    0.000000    
28.928280    157.494110    -60.306656    -2.519279    5.006977    17.739508    1.412035    0.217071    -2.155149    -13.093637    -2.854476    -1.041962    16.179434    1.158445    5.389463    1.601497    -0.537078    3.591605    14.021457    -3.292775    -13.914806    -22.153196    -25.353922    -32.589523    -16.495947    -34.601658    -99.426979    -29.682491    -42.465424    -35.430965    -15.219538    -1.455280    -5.901596    18.233860    18.408516    12.026236    11.685066    13.870953    -0.073619    9.567336    14.978529    13.514230    28.598766    -5.647718    -5.652860    -7.790447    24.152901    -16.115072    -10.899470    -5.876922    46.982533    0.000000    0.000000    0.000000    -7.170162    -30.944256    0.864275    16.590042    36.983070    -11.196718    -6.013152    -7.146667    -12.462023    0.000000    0.000000    0.000000    
28.313335    157.719971    -60.134483    -2.467886    5.073820    17.800055    1.391194    0.221499    -2.143444    -13.086664    -2.861845    -1.038749    16.067646    1.151435    5.357333    1.676318    -0.501139    3.583403    13.973008    -3.304420    -13.896461    -22.145306    -25.176519    -32.675007    -16.516520    -34.651588    -99.427116    -29.761093    -42.498817    -35.477959    -15.252502    -1.470188    -5.877352    18.259899    18.405664    12.021598    11.657591    13.896738    -0.024017    9.639129    15.002950    13.458427    28.140112    -5.738981    -5.008424    -7.926417    24.434134    -15.958051    -10.161674    -6.737197    45.200657    0.000000    0.000000    0.000000    -6.945186    -30.837646    0.943916    16.426115    36.700310    -11.025593    -6.048330    -6.993649    -12.637840    0.000000    0.000000    0.000000    
27.710720    157.941681    -59.959984    -2.447390    5.113890    17.854544    1.380376    0.221725    -2.152619    -13.052688    -2.853734    -1.039999    16.042543    1.181098    5.372978    1.659252    -0.483682    3.604783    13.962260    -3.306529    -13.888056    -22.156258    -25.037483    -32.720852    -16.475424    -34.705669    -99.429123    -29.747351    -42.523716    -35.432610    -15.264842    -1.496760    -5.800052    18.273375    18.393961    12.051886    11.654157    13.882477    -0.068605    9.625688    14.993691    13.483591    27.675516    -5.843875    -4.260782    -7.932217    24.918175    -16.070047    -9.823660    -7.842076    43.545883    0.000000    0.000000    0.000000    -6.651815    -30.715561    1.058361    16.203150    36.413578    -10.906127    -6.030513    -6.857030    -12.712193    0.000000    0.000000    0.000000    
